<svg width="1080" height="1080" viewBox="0 0 1080 1080" fill="none" xmlns="http://www.w3.org/2000/svg">
<rect width="1080" height="1080" fill="white"/>
<path d="M418.571 495.118V482.598C418.571 477.726 421.007 473.176 425.061 470.474L520.571 406.799V426.139L498.277 440.072L439.991 476.501L420.853 488.463L439.632 500.982L520.571 554.941V570.917L425.061 507.242C421.007 504.54 418.571 499.99 418.571 495.118Z" stroke="#2D3192" stroke-width="29.1429"/>
<path d="M666.286 482.597V495.117C666.286 499.989 663.851 504.539 659.797 507.241L564.286 570.916V551.576L586.58 537.643L644.866 501.214L664.005 489.252L645.226 476.732L564.286 422.773V406.798L659.797 470.473C663.851 473.175 666.286 477.725 666.286 482.597Z" stroke="#2D3192" stroke-width="29.1429"/>
<path d="M292.195 641.857V692.857H291.429V641.857H292.195Z" stroke="#2D3192" stroke-width="14.5714"/>
<path d="M237.896 642.169C245.154 642.949 252.167 645.18 257.699 648.661C264.573 652.987 268.795 658.936 269.316 666.426C269.413 667.815 269.392 669.06 269.264 670.151C269.145 671.165 268.903 672.313 268.53 673.583C265.319 684.533 253.539 691.236 239.259 692.598C244.994 691.968 251.022 690.086 256.052 685.827C259.271 683.102 263.758 678.626 265.314 672.917C266.08 670.111 266.059 667.322 265.725 664.868C264.558 656.309 259.156 650.395 252.868 646.841C248.3 644.259 243.057 642.769 237.896 642.169Z" stroke="#2D3192" stroke-width="14.5714"/>
<mask id="path-5-inside-1_286_52" fill="white">
<path d="M397.713 634.571L390.428 649.143H419.571V700.143H434.142V649.143H463.285L470.571 634.571H397.713Z"/>
</mask>
<path d="M390.428 649.143L377.395 642.626L366.851 663.714H390.428V649.143ZM397.713 634.571V620H388.708L384.68 628.055L397.713 634.571ZM470.571 634.571L483.604 641.088L494.148 620H470.571V634.571ZM463.285 649.143V663.714H472.291L476.318 655.659L463.285 649.143ZM434.142 649.143V634.571H419.571V649.143H434.142ZM434.142 700.143V714.714H448.713V700.143H434.142ZM419.571 700.143H404.999V714.714H419.571V700.143ZM419.571 649.143H434.142V634.571H419.571V649.143ZM390.428 649.143L403.461 655.659L410.747 641.088L397.713 634.571L384.68 628.055L377.395 642.626L390.428 649.143ZM397.713 634.571V649.143H470.571V634.571V620H397.713V634.571ZM470.571 634.571L457.538 628.055L450.252 642.626L463.285 649.143L476.318 655.659L483.604 641.088L470.571 634.571ZM463.285 649.143V634.571H434.142V649.143V663.714H463.285V649.143ZM434.142 649.143H419.571V700.143H434.142H448.713V649.143H434.142ZM434.142 700.143V685.571H419.571V700.143V714.714H434.142V700.143ZM419.571 700.143H434.142V649.143H419.571H404.999V700.143H419.571ZM419.571 649.143V634.571H390.428V649.143V663.714H419.571V649.143Z" fill="#2D3192" mask="url(#path-5-inside-1_286_52)"/>
<path d="M504.829 641.857C506.922 641.857 508.865 642.946 509.957 644.732L539.367 692.857H536.359L529.393 681.71L511.179 652.567L505.197 642.998L498.938 652.387L471.958 692.857H467.613L499.829 644.533C500.944 642.862 502.82 641.858 504.829 641.857Z" stroke="#2D3192" stroke-width="14.5714"/>
<mask id="path-8-inside-2_286_52" fill="white">
<path d="M400.713 685.571L394.713 700.143H349.713V634.571H364.713V685.571H400.713Z"/>
</mask>
<path d="M394.713 700.143V729.286H414.23L421.661 711.239L394.713 700.143ZM400.713 685.571L427.661 696.667L444.23 656.428H400.713V685.571ZM364.713 685.571H335.57V714.714H364.713V685.571ZM364.713 634.571H393.856V605.428H364.713V634.571ZM349.713 634.571V605.428H320.57V634.571H349.713ZM349.713 700.143H320.57V729.286H349.713V700.143ZM394.713 700.143L421.661 711.239L427.661 696.667L400.713 685.571L373.765 674.475L367.765 689.047L394.713 700.143ZM400.713 685.571V656.428H364.713V685.571V714.714H400.713V685.571ZM364.713 685.571H393.856V634.571H364.713H335.57V685.571H364.713ZM364.713 634.571V605.428H349.713V634.571V663.714H364.713V634.571ZM349.713 634.571H320.57V700.143H349.713H378.856V634.571H349.713ZM349.713 700.143V729.286H394.713V700.143V671H349.713V700.143Z" fill="#2D3192" mask="url(#path-8-inside-2_286_52)"/>
<path d="M601.97 649.665C598.585 652.575 595.918 656.438 594.59 661.41C594.071 663.354 593.679 665.538 593.679 667.786C593.679 670.034 594.071 672.218 594.59 674.161C598.3 688.056 612.465 693.286 623.544 693.286H615.876C608.231 693.286 600.892 690.282 595.441 684.922L595.344 684.825C595.331 684.808 595.317 684.79 595.303 684.771C595.091 684.48 594.771 684.025 594.385 683.433C593.606 682.237 592.597 680.535 591.679 678.527C589.747 674.307 588.685 669.771 589.647 665.901C591.333 659.124 595.798 653.638 601.97 649.665Z" stroke="#2D3192" stroke-width="14.5714"/>
<mask id="path-11-inside-3_286_52" fill="white">
<path d="M675.763 635L669.428 649.571H715.22C720.302 649.571 726.446 651.775 726.446 656.857C726.446 661.939 720.302 664.143 715.22 664.143H669.428V700.571H685.266V678.714H713.776L720.111 700.571H739.117L729.614 675.071C729.614 675.071 742.285 665.966 742.285 656.857C742.285 653.692 741.222 650.526 739.712 647.626C734.87 638.33 723.848 635 713.367 635H675.763Z"/>
</mask>
<path d="M669.428 649.571L642.702 637.951L624.979 678.714H669.428V649.571ZM675.763 635V605.857H656.656L649.037 623.38L675.763 635ZM739.712 647.626L713.864 661.088L713.864 661.088L739.712 647.626ZM729.614 675.071L712.608 651.405L694.534 664.393L702.306 685.248L729.614 675.071ZM739.117 700.571V729.714H781.079L766.425 690.394L739.117 700.571ZM720.111 700.571L692.12 708.685L698.216 729.714H720.111V700.571ZM713.776 678.714L741.766 670.601L735.671 649.571H713.776V678.714ZM685.266 678.714V649.571H656.123V678.714H685.266ZM685.266 700.571V729.714H714.409V700.571H685.266ZM669.428 700.571H640.285V729.714H669.428V700.571ZM669.428 664.143V635H640.285V664.143H669.428ZM669.428 649.571L696.154 661.191L702.489 646.62L675.763 635L649.037 623.38L642.702 637.951L669.428 649.571ZM675.763 635V664.143H713.367V635V605.857H675.763V635ZM739.712 647.626L713.864 661.088C713.927 661.208 713.779 660.956 713.6 660.345C713.419 659.728 713.142 658.526 713.142 656.857H742.285H771.428C771.428 647.362 768.321 639.468 765.559 634.165L739.712 647.626ZM742.285 656.857H713.142C713.142 652.495 714.591 649.822 714.84 649.375C715.157 648.804 715.198 648.899 714.584 649.561C714.046 650.14 713.41 650.721 712.87 651.174C712.622 651.382 712.446 651.52 712.38 651.571C712.348 651.595 712.347 651.596 712.382 651.569C712.4 651.556 712.427 651.536 712.465 651.509C712.483 651.495 712.505 651.48 712.528 651.462C712.54 651.454 712.553 651.445 712.566 651.435C712.573 651.43 712.579 651.426 712.586 651.421C712.59 651.418 712.595 651.414 712.597 651.413C712.602 651.409 712.608 651.405 729.614 675.071C746.62 698.738 746.626 698.734 746.631 698.73C746.633 698.728 746.639 698.724 746.643 698.722C746.651 698.716 746.659 698.71 746.667 698.704C746.683 698.693 746.7 698.68 746.718 698.667C746.754 698.641 746.794 698.612 746.836 698.581C746.921 698.519 747.02 698.447 747.13 698.365C747.351 698.201 747.623 697.996 747.937 697.754C748.564 697.271 749.378 696.627 750.317 695.839C752.153 694.3 754.685 692.035 757.315 689.199C761.045 685.178 771.428 673.382 771.428 656.857H742.285ZM729.614 675.071L702.306 685.248L711.809 710.748L739.117 700.571L766.425 690.394L756.922 664.894L729.614 675.071ZM739.117 700.571V671.429H720.111V700.571V729.714H739.117V700.571ZM720.111 700.571L748.102 692.458L741.766 670.601L713.776 678.714L685.785 686.828L692.12 708.685L720.111 700.571ZM713.776 678.714V649.571H685.266V678.714V707.857H713.776V678.714ZM685.266 678.714H656.123V700.571H685.266H714.409V678.714H685.266ZM685.266 700.571V671.429H669.428V700.571V729.714H685.266V700.571ZM669.428 700.571H698.571V664.143H669.428H640.285V700.571H669.428ZM669.428 664.143V693.286H715.22V664.143V635H669.428V664.143ZM715.22 649.571V620.429H669.428V649.571V678.714H715.22V649.571ZM726.446 656.857H755.589C755.589 640.176 744.72 630.109 736.711 625.733C729.201 621.631 721.283 620.429 715.22 620.429V649.571V678.714C714.239 678.714 711.934 678.614 708.767 676.884C707.01 675.924 704.167 673.992 701.66 670.469C698.937 666.641 697.304 661.865 697.304 656.857H726.446ZM715.22 664.143V693.286C721.283 693.286 729.201 692.084 736.711 687.981C744.72 683.606 755.589 673.538 755.589 656.857H726.446H697.304C697.304 651.85 698.937 647.074 701.66 643.245C704.167 639.722 707.01 637.79 708.767 636.83C711.934 635.1 714.239 635 715.22 635V664.143ZM713.367 635V664.143C714.472 664.143 715.413 664.233 716.142 664.362C716.88 664.493 717.212 664.63 717.209 664.629C717.195 664.623 716.7 664.41 715.994 663.801C715.242 663.152 714.458 662.228 713.864 661.088L739.712 647.626L765.559 634.165C753.08 610.204 727.541 605.857 713.367 605.857V635Z" fill="#2D3192" mask="url(#path-11-inside-3_286_52)"/>
<rect x="749.57" y="635" width="14.5714" height="65.5714" fill="#2D3192"/>
<mask id="path-14-inside-4_286_52" fill="white">
<path d="M822.428 686L816.428 700.571H771.428V635H786.428V686H822.428Z"/>
</mask>
<path d="M816.428 700.571V729.714H835.944L843.375 711.668L816.428 700.571ZM822.428 686L849.375 697.096L865.944 656.857H822.428V686ZM786.428 686H757.285V715.143H786.428V686ZM786.428 635H815.571V605.857H786.428V635ZM771.428 635V605.857H742.285V635H771.428ZM771.428 700.571H742.285V729.714H771.428V700.571ZM816.428 700.571L843.375 711.668L849.375 697.096L822.428 686L795.48 674.904L789.48 689.475L816.428 700.571ZM822.428 686V656.857H786.428V686V715.143H822.428V686ZM786.428 686H815.571V635H786.428H757.285V686H786.428ZM786.428 635V605.857H771.428V635V664.143H786.428V635ZM771.428 635H742.285V700.571H771.428H800.571V635H771.428ZM771.428 700.571V729.714H816.428V700.571V671.429H771.428V700.571Z" fill="#2D3192" mask="url(#path-14-inside-4_286_52)"/>
<mask id="path-16-inside-5_286_52" fill="white">
<path d="M880.713 686L874.713 700.571H829.713V635H844.713V686H880.713Z"/>
</mask>
<path d="M874.713 700.571V729.714H894.23L901.661 711.668L874.713 700.571ZM880.713 686L907.661 697.096L924.23 656.857H880.713V686ZM844.713 686H815.57V715.143H844.713V686ZM844.713 635H873.856V605.857H844.713V635ZM829.713 635V605.857H800.57V635H829.713ZM829.713 700.571H800.57V729.714H829.713V700.571ZM874.713 700.571L901.661 711.668L907.661 697.096L880.713 686L853.765 674.904L847.765 689.475L874.713 700.571ZM880.713 686V656.857H844.713V686V715.143H880.713V686ZM844.713 686H873.856V635H844.713H815.57V686H844.713ZM844.713 635V605.857H829.713V635V664.143H844.713V635ZM829.713 635H800.57V700.571H829.713H858.856V635H829.713ZM829.713 700.571V729.714H874.713V700.571V671.429H829.713V700.571Z" fill="#2D3192" mask="url(#path-16-inside-5_286_52)"/>
<rect x="95.5714" y="328.572" width="888.857" height="422.571" rx="43.7143" stroke="#F38321" stroke-width="29.1429"/>
</svg>
